<svg id="visual" viewBox="0 0 960 540" width="960" height="540" xmlns="http://www.w3.org/2000/svg" xmlns:xlink="http://www.w3.org/1999/xlink" version="1.1"><rect x="0" y="0" width="960" height="540" fill="#213875"></rect><defs><linearGradient id="grad1_0" x1="43.8%" y1="0%" x2="100%" y2="100%"><stop offset="14.444444444444446%" stop-color="#f433ab" stop-opacity="1"></stop><stop offset="85.55555555555554%" stop-color="#f433ab" stop-opacity="1"></stop></linearGradient></defs><defs><linearGradient id="grad1_1" x1="43.8%" y1="0%" x2="100%" y2="100%"><stop offset="14.444444444444446%" stop-color="#f433ab" stop-opacity="1"></stop><stop offset="85.55555555555554%" stop-color="#be3ead" stop-opacity="1"></stop></linearGradient></defs><defs><linearGradient id="grad1_2" x1="43.8%" y1="0%" x2="100%" y2="100%"><stop offset="14.444444444444446%" stop-color="#8743a4" stop-opacity="1"></stop><stop offset="85.55555555555554%" stop-color="#be3ead" stop-opacity="1"></stop></linearGradient></defs><defs><linearGradient id="grad1_3" x1="43.8%" y1="0%" x2="100%" y2="100%"><stop offset="14.444444444444446%" stop-color="#8743a4" stop-opacity="1"></stop><stop offset="85.55555555555554%" stop-color="#524090" stop-opacity="1"></stop></linearGradient></defs><defs><linearGradient id="grad1_4" x1="43.8%" y1="0%" x2="100%" y2="100%"><stop offset="14.444444444444446%" stop-color="#213875" stop-opacity="1"></stop><stop offset="85.55555555555554%" stop-color="#524090" stop-opacity="1"></stop></linearGradient></defs><defs><linearGradient id="grad2_0" x1="0%" y1="0%" x2="56.3%" y2="100%"><stop offset="14.444444444444446%" stop-color="#f433ab" stop-opacity="1"></stop><stop offset="85.55555555555554%" stop-color="#f433ab" stop-opacity="1"></stop></linearGradient></defs><defs><linearGradient id="grad2_1" x1="0%" y1="0%" x2="56.3%" y2="100%"><stop offset="14.444444444444446%" stop-color="#be3ead" stop-opacity="1"></stop><stop offset="85.55555555555554%" stop-color="#f433ab" stop-opacity="1"></stop></linearGradient></defs><defs><linearGradient id="grad2_2" x1="0%" y1="0%" x2="56.3%" y2="100%"><stop offset="14.444444444444446%" stop-color="#be3ead" stop-opacity="1"></stop><stop offset="85.55555555555554%" stop-color="#8743a4" stop-opacity="1"></stop></linearGradient></defs><defs><linearGradient id="grad2_3" x1="0%" y1="0%" x2="56.3%" y2="100%"><stop offset="14.444444444444446%" stop-color="#524090" stop-opacity="1"></stop><stop offset="85.55555555555554%" stop-color="#8743a4" stop-opacity="1"></stop></linearGradient></defs><defs><linearGradient id="grad2_4" x1="0%" y1="0%" x2="56.3%" y2="100%"><stop offset="14.444444444444446%" stop-color="#524090" stop-opacity="1"></stop><stop offset="85.55555555555554%" stop-color="#213875" stop-opacity="1"></stop></linearGradient></defs><g transform="translate(960, 0)"><path d="M0 409C-69.4 393.7 -138.7 378.3 -199.5 345.5C-260.3 312.8 -312.5 262.5 -349.9 202C-387.2 141.5 -409.6 70.7 -432 0L0 0Z" fill="#393d83"></path><path d="M0 327.2C-55.5 314.9 -111 302.7 -159.6 276.4C-208.2 250.2 -250 210 -279.9 161.6C-309.8 113.2 -327.7 56.6 -345.6 0L0 0Z" fill="#6c429b"></path><path d="M0 245.4C-41.6 236.2 -83.2 227 -119.7 207.3C-156.2 187.7 -187.5 157.5 -209.9 121.2C-232.3 84.9 -245.8 42.4 -259.2 0L0 0Z" fill="#a241aa"></path><path d="M0 163.6C-27.7 157.5 -55.5 151.3 -79.8 138.2C-104.1 125.1 -125 105 -139.9 80.8C-154.9 56.6 -163.8 28.3 -172.8 0L0 0Z" fill="#d939ad"></path><path d="M0 81.8C-13.9 78.7 -27.7 75.7 -39.9 69.1C-52.1 62.6 -62.5 52.5 -70 40.4C-77.4 28.3 -81.9 14.1 -86.4 0L0 0Z" fill="#f433ab"></path></g><g transform="translate(0, 540)"><path d="M0 -379C61.5 -364.7 123 -350.4 188 -325.6C253 -300.8 321.6 -265.5 362.9 -209.5C404.1 -153.5 418.1 -76.7 432 0L0 0Z" fill="#393d83"></path><path d="M0 -303.2C49.2 -291.8 98.4 -280.3 150.4 -260.5C202.4 -240.7 257.3 -212.4 290.3 -167.6C323.3 -122.8 334.4 -61.4 345.6 0L0 0Z" fill="#6c429b"></path><path d="M0 -227.4C36.9 -218.8 73.8 -210.3 112.8 -195.4C151.8 -180.5 193 -159.3 217.7 -125.7C242.5 -92.1 250.8 -46 259.2 0L0 0Z" fill="#a241aa"></path><path d="M0 -151.6C24.6 -145.9 49.2 -140.2 75.2 -130.3C101.2 -120.3 128.6 -106.2 145.1 -83.8C161.6 -61.4 167.2 -30.7 172.8 0L0 0Z" fill="#d939ad"></path><path d="M0 -75.8C12.3 -72.9 24.6 -70.1 37.6 -65.1C50.6 -60.2 64.3 -53.1 72.6 -41.9C80.8 -30.7 83.6 -15.3 86.4 0L0 0Z" fill="#f433ab"></path></g></svg>